<?xml version="1.0" standalone="no"?>
<!DOCTYPE svg PUBLIC "-//W3C//DTD SVG 20010904//EN"
 "http://www.w3.org/TR/2001/REC-SVG-20010904/DTD/svg10.dtd">
<svg version="1.0" xmlns="http://www.w3.org/2000/svg"
 width="501.000000pt" height="599.000000pt" viewBox="0 0 501.000000 599.000000"
 preserveAspectRatio="xMidYMid meet">

<g transform="translate(0.000000,599.000000) scale(0.100000,-0.100000)"
fill="white" stroke="none">
<path d="M995 5975 c-390 -69 -762 -358 -906 -704 -17 -41 -43 -118 -57 -170
-22 -85 -26 -115 -25 -256 0 -141 3 -172 26 -260 31 -116 108 -279 167 -354
l41 -52 -20 -57 c-73 -214 0 -422 181 -517 50 -26 58 -34 67 -70 8 -33 6 -53
-10 -105 -27 -86 -64 -254 -81 -365 -20 -138 -17 -522 5 -660 43 -258 103
-447 212 -671 291 -595 813 -1035 1446 -1218 76 -21 86 -27 107 -62 37 -59 63
-85 107 -105 78 -36 185 -18 252 44 13 11 24 19 26 16 2 -2 8 -31 15 -64 51
-259 326 -429 482 -298 28 23 32 24 53 11 57 -38 154 -50 220 -29 46 15 94 68
116 127 11 27 21 48 22 48 2 -1 31 -10 63 -19 50 -15 68 -16 112 -6 72 16 126
58 158 122 25 51 26 59 26 230 l0 177 98 60 c303 188 544 423 741 727 398 611
481 1411 216 2085 -47 120 -57 159 -90 350 -117 667 -406 1181 -777 1379 -437
234 -1183 94 -1848 -348 -63 -42 -118 -77 -121 -79 -3 -1 -9 23 -11 55 -10
101 -87 232 -160 272 -24 12 -25 18 -31 139 -7 146 -23 215 -77 327 -69 145
-197 246 -365 291 -84 22 -281 27 -380 9z m327 -129 c101 -18 159 -49 219
-114 81 -88 147 -253 165 -409 l6 -58 -72 1 -72 1 -23 68 c-47 133 -128 234
-223 277 -50 23 -146 35 -155 21 -4 -6 18 -30 49 -54 77 -61 147 -149 194
-244 22 -45 40 -85 39 -90 0 -6 -34 -26 -75 -47 l-74 -36 -28 56 c-32 67 -119
163 -176 197 -47 27 -127 48 -151 39 -12 -5 2 -23 61 -78 85 -78 142 -158 174
-243 l21 -55 -40 -43 c-22 -24 -54 -69 -72 -101 l-32 -57 -23 51 c-54 123
-154 235 -250 279 -58 26 -164 43 -164 25 0 -5 30 -34 66 -64 134 -107 221
-240 250 -380 31 -144 2 -243 -84 -280 -113 -50 -250 39 -281 182 -6 28 -11
94 -11 146 0 90 -1 94 -19 84 -26 -13 -68 -103 -76 -161 -20 -138 68 -324 179
-381 90 -46 237 -32 325 32 35 26 92 98 103 131 2 5 28 -4 58 -19 49 -24 66
-27 160 -27 94 0 111 3 168 29 65 30 164 123 175 165 7 30 -9 27 -105 -19
-137 -65 -271 -72 -327 -16 -23 23 -26 34 -26 94 0 88 29 147 111 229 44 43
89 74 150 105 83 41 92 43 173 43 97 0 148 -20 195 -76 99 -117 81 -342 -45
-557 -49 -83 -207 -236 -326 -317 -57 -38 -103 -73 -103 -78 0 -14 102 0 161
22 l51 20 14 -34 c49 -119 -39 -270 -207 -352 -185 -91 -515 -136 -714 -98
-181 34 -270 109 -296 248 -9 53 0 140 17 157 5 5 36 -4 71 -22 64 -32 193
-52 193 -30 0 6 -28 26 -63 46 -215 122 -331 294 -395 590 -26 120 -22 354 7
461 130 481 669 827 1153 741z m2372 -732 c97 -25 190 -79 251 -146 95 -106
165 -291 150 -398 -7 -51 -47 -125 -75 -140 -15 -8 -33 1 -102 53 -214 160
-481 248 -761 250 -159 1 -157 -1 -138 100 28 152 141 247 342 286 77 15 266
12 333 -5z m-1291 -863 c18 -5 49 -12 70 -16 32 -5 38 -10 37 -28 -4 -41 0
-40 55 12 73 69 122 91 210 91 123 0 219 -67 296 -208 19 -34 38 -62 43 -62 5
0 7 51 4 116 l-5 117 84 -7 c46 -4 119 -16 161 -26 85 -22 248 -98 276 -129
18 -20 18 -22 -40 -84 -59 -63 -92 -112 -82 -122 3 -3 36 7 74 22 60 23 84 27
180 27 106 1 112 0 160 -29 67 -42 104 -114 113 -222 6 -70 8 -76 19 -55 13
22 13 22 45 -20 49 -64 103 -97 180 -111 74 -12 70 -8 82 -97 8 -69 -35 -151
-116 -221 -109 -94 -144 -133 -157 -176 -23 -78 -12 -155 29 -199 20 -21 20
-21 -8 -75 -23 -45 -27 -67 -28 -134 0 -59 5 -89 18 -114 17 -30 18 -40 7
-100 -18 -97 -65 -218 -109 -281 -99 -144 -322 -258 -625 -320 -54 -11 -109
-20 -121 -20 -13 0 -65 -20 -117 -45 -132 -64 -229 -87 -363 -88 -134 -2 -192
11 -315 70 -82 39 -108 58 -186 137 -93 93 -158 189 -195 287 -12 31 -45 80
-78 118 -126 143 -225 310 -271 456 -31 98 -39 285 -15 374 31 120 104 235
157 246 63 14 157 128 158 191 0 15 10 24 39 32 77 24 119 77 132 167 4 28 1
116 -7 196 -8 92 -10 173 -5 219 7 72 8 74 59 121 l52 48 36 -24 c19 -13 49
-28 67 -34z m-589 -199 c16 -10 37 -28 48 -42 18 -25 18 -25 -20 -102 l-38
-78 -29 30 c-27 28 -54 38 -67 24 -4 -3 5 -38 19 -77 26 -76 26 -98 3 -227
-11 -63 -7 -147 9 -179 6 -11 -2 -29 -25 -59 -22 -28 -36 -39 -39 -30 -6 17
-40 171 -71 322 l-24 119 35 51 c43 63 63 119 71 201 5 47 11 65 23 68 24 7
72 -3 105 -21z m3037 -929 c30 -170 37 -465 15 -641 -53 -417 -214 -797 -473
-1117 -93 -115 -184 -205 -190 -189 -10 29 -141 216 -198 285 -72 86 -203 212
-271 261 -24 17 -44 35 -44 38 0 4 21 15 48 25 130 49 268 139 322 210 l24 31
120 0 c136 -1 226 20 323 76 201 113 325 359 311 609 -7 112 -36 187 -99 252
l-48 50 34 40 c35 41 72 125 82 186 9 50 20 21 44 -116z m-4287 101 c13 -50
124 -339 186 -484 72 -168 237 -497 310 -619 27 -46 50 -89 50 -94 0 -6 -28
-69 -61 -141 -34 -72 -85 -186 -114 -254 -29 -67 -54 -124 -56 -127 -7 -7 -86
118 -145 229 -111 212 -197 482 -229 724 -29 212 -21 488 21 714 16 88 26 101
38 52z m4063 -311 c25 -16 53 -47 70 -77 26 -47 28 -59 28 -161 0 -86 -5 -126
-22 -180 -45 -141 -159 -266 -288 -314 -59 -22 -240 -50 -251 -38 -4 3 5 44
19 89 14 46 31 109 36 141 12 66 17 77 35 77 25 0 93 70 125 129 39 75 73 99
156 114 36 7 67 17 68 22 3 16 -84 55 -121 55 -31 0 -34 2 -28 25 4 14 9 46
12 73 9 72 8 72 67 72 41 0 63 -6 94 -27z m-2928 -1468 c134 -69 113 -336 -37
-477 -27 -25 -68 -56 -91 -67 l-41 -21 -42 26 c-24 15 -76 52 -117 82 l-74 56
7 68 c8 86 35 159 84 223 40 53 114 109 166 125 39 12 107 5 145 -15z m1787
-220 c99 -21 210 -63 292 -112 61 -36 182 -137 182 -151 0 -7 -147 -103 -217
-142 -24 -13 -45 -32 -49 -42 -3 -11 -6 -94 -6 -186 1 -193 -6 -230 -50 -267
-28 -23 -39 -26 -80 -23 -30 3 -59 14 -80 30 -40 30 -85 109 -104 182 -16 60
-18 212 -4 310 6 38 8 71 5 74 -11 11 -64 -52 -85 -100 -56 -130 -49 -315 16
-445 33 -65 35 -75 25 -106 -29 -86 -129 -123 -202 -74 -79 53 -118 161 -126
349 -6 129 6 258 32 358 7 27 10 52 6 55 -13 7 -58 -46 -86 -102 -45 -90 -65
-192 -65 -327 0 -132 14 -208 55 -291 23 -46 23 -51 8 -63 -44 -32 -140 -3
-199 60 -69 72 -101 171 -110 333 -7 126 5 225 41 330 14 39 25 75 25 79 0 17
-59 -26 -83 -61 -42 -61 -65 -123 -81 -216 -18 -98 -38 -133 -103 -176 -115
-76 -197 -33 -224 119 -9 54 -10 88 0 153 30 218 125 360 266 398 60 17 157 6
218 -25 l54 -26 55 30 c133 72 279 102 469 95 69 -2 162 -12 205 -20z"/>
<path d="M3338 4977 l-168 -82 21 -45 c11 -25 25 -55 30 -67 8 -22 12 -20 93
45 47 37 103 77 125 89 l40 23 57 -90 c31 -50 58 -90 60 -90 2 0 44 18 95 40
50 23 93 39 94 38 6 -6 54 -175 61 -211 3 -20 10 -40 15 -43 5 -3 36 0 70 7
58 11 60 13 54 38 -6 25 -127 292 -145 321 -7 12 -26 6 -110 -32 l-101 -47
-60 95 c-34 51 -62 94 -62 93 -1 0 -77 -37 -169 -82z"/>
<path d="M2720 4124 c-66 -24 -125 -68 -169 -127 -148 -196 -185 -491 -83
-657 28 -45 28 -46 12 -83 -9 -20 -19 -40 -23 -43 -10 -10 -102 53 -143 98
-42 47 -79 124 -89 186 -4 23 -12 42 -19 42 -22 0 -100 -56 -138 -98 -109
-120 -117 -278 -20 -363 l37 -33 0 -95 c0 -80 4 -103 22 -138 28 -51 79 -94
130 -109 l38 -11 1 -179 c0 -148 4 -194 22 -266 73 -294 278 -456 534 -419
222 31 401 167 562 428 25 40 27 42 57 31 17 -6 66 -8 109 -6 64 4 87 10 119
31 42 28 81 90 81 128 0 20 4 21 43 16 104 -14 192 45 223 149 20 69 15 200
-9 256 l-16 37 -58 -35 c-87 -52 -150 -67 -255 -62 -49 3 -91 7 -93 9 -2 2 2
31 9 64 11 55 14 60 43 66 139 28 262 180 314 388 28 113 24 261 -10 339 -65
146 -243 211 -387 142 -99 -48 -201 -188 -235 -322 -6 -27 -12 -48 -14 -48 -1
0 -35 15 -76 34 -41 19 -100 40 -131 47 -32 6 -58 15 -58 18 0 3 7 41 15 84
20 102 19 258 0 325 -21 68 -70 131 -127 160 -61 32 -156 38 -218 16z m204
-97 c37 -29 58 -62 70 -109 l6 -26 -40 15 c-34 14 -49 14 -91 5 -145 -34 -245
-190 -257 -399 -4 -85 -7 -94 -33 -119 -26 -24 -31 -26 -43 -14 -45 47 -61
229 -31 345 37 143 116 264 204 311 66 35 162 31 215 -9z m47 -176 c23 -23 29
-38 29 -71 l0 -41 -26 20 c-51 40 -124 19 -179 -53 -28 -37 -65 -140 -65 -182
0 -18 -10 -29 -40 -44 l-40 -20 0 47 c0 61 24 162 50 214 69 133 203 198 271
130z m808 -110 c48 -25 95 -78 112 -128 18 -53 16 -195 -5 -272 -48 -179 -141
-297 -257 -326 -23 -6 -27 -3 -33 26 -5 27 -1 37 33 74 78 85 122 209 122 346
0 44 -5 97 -12 117 -25 79 -88 132 -156 132 -31 0 -24 10 22 34 42 22 127 20
174 -3z m-140 -86 c34 -17 66 -80 75 -146 13 -94 -27 -253 -84 -333 -43 -59
-56 -63 -70 -21 -10 30 -8 38 15 72 52 77 79 214 54 280 -26 69 -91 99 -150
69 -18 -9 -34 -15 -35 -13 -10 9 41 69 73 86 46 24 84 26 122 6z m-701 -7 c17
-17 15 -68 -5 -90 -32 -36 -73 -16 -73 36 0 51 48 84 78 54z m580 -190 c17
-17 15 -68 -5 -90 -22 -25 -49 -23 -68 6 -32 49 33 124 73 84z m-407 -52 c189
-58 343 -217 379 -393 31 -146 -37 -289 -165 -349 -192 -89 -503 -19 -662 149
-72 76 -105 145 -111 233 -15 232 171 395 433 379 44 -3 101 -11 126 -19z
m-701 -750 c32 -67 94 -132 155 -161 69 -34 189 -45 252 -22 l42 14 35 -53
c93 -140 294 -189 420 -101 l28 20 -12 -24 c-7 -13 -28 -48 -47 -78 l-34 -53
-62 6 c-255 29 -569 144 -740 272 l-77 57 0 61 c0 55 8 106 15 106 2 0 13 -20
25 -44z"/>
<path d="M1637 1200 c-27 -58 -57 -101 -107 -154 -39 -40 -70 -76 -70 -80 0
-13 52 -5 88 13 72 37 135 126 148 210 7 41 -1 91 -14 91 -4 0 -24 -36 -45
-80z"/>
</g>
</svg>
