<?xml version="1.0" standalone="no"?>
<!DOCTYPE svg PUBLIC "-//W3C//DTD SVG 20010904//EN"
 "http://www.w3.org/TR/2001/REC-SVG-20010904/DTD/svg10.dtd">
<svg version="1.0" xmlns="http://www.w3.org/2000/svg"
 width="1297.000000pt" height="1462.000000pt" viewBox="0 0 1297.000000 1462.000000"
 preserveAspectRatio="xMidYMid meet">

<g transform="translate(0.000000,1462.000000) scale(0.100000,-0.100000)"
fill="white" stroke="none">
<path d="M6310 14599 c-926 -30 -1813 -310 -2640 -832 -1214 -766 -2266 -2101
-2875 -3647 -151 -381 -268 -781 -315 -1070 -69 -427 -22 -1043 115 -1520 43
-149 101 -316 122 -348 8 -13 13 -25 11 -26 -2 -2 -34 -17 -72 -35 -288 -132
-510 -468 -594 -901 -43 -217 -47 -260 -46 -540 0 -295 14 -426 70 -674 149
-663 532 -1357 972 -1758 226 -206 499 -328 733 -328 39 0 61 -4 64 -12 213
-627 498 -1036 970 -1392 276 -209 529 -351 1037 -579 273 -124 359 -169 643
-337 460 -273 693 -384 978 -466 603 -173 1382 -177 1977 -8 313 89 523 187
995 467 277 164 409 233 661 345 636 285 1012 520 1325 832 290 288 503 634
645 1045 l35 102 92 6 c387 23 745 280 1101 790 341 489 567 1080 632 1647 21
186 15 570 -11 735 -79 505 -305 883 -611 1021 -33 15 -60 28 -62 29 -1 1 14
44 33 96 124 322 203 751 227 1222 13 264 4 443 -36 677 -124 733 -533 1681
-1083 2513 -889 1342 -2031 2275 -3303 2697 -576 191 -1142 270 -1790 249z
m500 -639 c1444 -101 2731 -869 3771 -2250 522 -692 955 -1530 1172 -2270 100
-341 137 -551 137 -796 0 -526 -107 -1046 -292 -1413 l-43 -84 -116 -33 c-128
-36 -266 -87 -348 -129 -29 -14 -54 -25 -56 -23 -5 5 71 244 115 362 25 68 64
146 101 204 80 123 178 330 222 467 70 218 107 501 86 664 -26 211 -251 616
-541 973 -118 145 -399 427 -553 554 -774 639 -1773 1039 -2955 1184 -662 80
-1434 78 -2095 -6 -1745 -221 -3123 -1036 -3820 -2257 -72 -125 -154 -310
-173 -389 -17 -65 -15 -255 3 -392 36 -275 147 -578 290 -795 25 -37 67 -125
95 -199 57 -151 122 -353 116 -359 -2 -3 -26 7 -53 20 -65 33 -174 72 -313
111 l-114 33 -44 88 c-210 423 -314 874 -316 1370 -1 189 2 238 22 348 136
754 546 1690 1089 2492 467 689 1044 1280 1668 1708 362 248 829 478 1230 606
371 119 726 184 1165 214 111 8 418 6 550 -3z m170 -3181 c1336 -73 2453 -492
3229 -1213 312 -289 571 -642 692 -944 l33 -82 -12 -99 c-13 -104 -47 -235
-82 -316 l-20 -47 -63 51 c-34 28 -127 97 -207 155 -1442 1038 -3417 1458
-5345 1135 -1084 -182 -2148 -634 -2935 -1248 -63 -49 -118 -87 -121 -83 -26
29 -85 244 -100 363 -10 84 -9 90 17 156 188 477 652 996 1221 1366 948 616
2193 888 3693 806z m85 -1914 c335 -31 716 -96 1000 -169 72 -18 123 -36 115
-39 -8 -4 -44 -17 -80 -30 -322 -119 -641 -386 -861 -719 -98 -150 -114 -190
-114 -288 1 -100 24 -159 88 -223 62 -62 137 -92 227 -91 133 1 228 65 308
210 118 214 352 426 554 504 126 49 201 63 333 63 234 0 465 -87 765 -287 153
-103 210 -124 299 -112 105 14 223 99 253 183 7 18 16 33 22 33 33 0 566 -358
566 -380 0 -3 -21 -64 -46 -135 -145 -412 -202 -730 -191 -1073 6 -204 25
-349 106 -826 174 -1016 217 -1379 208 -1736 -20 -774 -284 -1303 -866 -1740
-197 -148 -444 -284 -831 -459 -347 -157 -482 -229 -880 -469 -450 -271 -689
-363 -1080 -419 -101 -14 -193 -18 -480 -17 -400 0 -521 12 -777 79 -250 66
-415 143 -828 392 -340 204 -435 255 -760 405 -629 291 -865 435 -1130 690
-355 341 -538 715 -612 1248 -24 174 -24 561 0 765 31 269 87 641 172 1150
125 746 144 929 125 1160 -22 265 -75 504 -180 814 -32 96 -58 176 -57 177 93
74 553 374 575 374 4 0 18 -20 31 -45 48 -91 144 -153 252 -162 92 -9 141 9
283 104 214 143 416 235 601 274 85 18 265 16 350 -5 289 -69 531 -261 704
-556 90 -152 168 -204 306 -204 62 0 90 5 126 23 68 32 120 81 154 142 27 49
30 62 30 149 0 87 -3 100 -32 156 -125 241 -370 513 -606 675 -97 67 -272 157
-357 184 -81 26 -81 27 -5 47 360 92 781 162 1135 188 80 6 168 12 195 14 121
9 731 -4 890 -19z m-5841 -2335 c249 -48 472 -149 671 -305 132 -103 123 -69
86 -327 -18 -123 -52 -347 -77 -498 -162 -997 -185 -1192 -185 -1572 0 -135
-4 -238 -9 -238 -25 0 -206 136 -298 224 -120 116 -194 204 -279 331 -270 406
-448 918 -483 1393 -33 441 82 895 254 1004 27 17 43 19 124 13 52 -3 140 -14
196 -25z m10835 16 c94 -49 189 -239 235 -471 96 -485 -2 -1057 -274 -1610
-176 -358 -372 -608 -620 -789 -54 -40 -130 -86 -142 -86 -2 0 -3 114 -3 253
-1 138 -7 304 -13 367 -30 274 -67 534 -137 965 -41 253 -91 570 -110 705
l-35 244 51 45 c237 210 545 344 884 384 72 9 138 6 164 -7z"/>
<path d="M6795 13104 l-320 -325 -305 321 c-277 292 -306 320 -318 303 -12
-17 -357 -663 -572 -1073 -134 -255 -290 -570 -290 -587 0 -7 33 -35 74 -62
92 -62 436 -261 452 -261 9 0 111 331 401 1303 l14 47 286 -325 c217 -248 288
-323 298 -315 7 6 122 145 256 310 134 165 246 300 249 300 3 0 99 -300 214
-667 115 -368 211 -671 213 -675 6 -11 534 336 531 348 -5 19 -853 1684 -858
1684 -3 0 -149 -147 -325 -326z"/>
<path d="M4683 6980 c-213 -44 -384 -323 -412 -673 -26 -312 59 -607 219 -768
36 -36 75 -72 87 -80 l22 -14 -50 -75 c-111 -166 -218 -422 -254 -611 -25
-130 -34 -298 -23 -421 5 -61 7 -112 5 -114 -2 -2 -51 9 -108 25 -544 153
-943 391 -1076 643 l-20 37 -26 -27 c-37 -39 -92 -155 -121 -253 -49 -170 -61
-282 -61 -564 1 -249 2 -264 27 -357 84 -308 308 -524 600 -580 l65 -12 21
-96 c74 -353 276 -615 543 -704 109 -36 245 -50 368 -36 138 15 229 42 354
106 l68 34 27 -32 c154 -186 323 -329 487 -411 199 -100 453 -114 690 -40 103
32 207 82 291 138 37 25 69 45 71 45 2 0 39 -20 81 -44 185 -107 387 -165 597
-173 121 -5 152 -3 223 15 209 53 448 213 621 416 l62 74 82 -38 c158 -74 391
-112 553 -90 339 45 585 281 698 671 13 47 27 106 31 132 7 46 8 47 44 47 49
1 155 38 225 80 183 110 339 332 398 566 42 169 23 565 -39 804 -24 96 -94
254 -132 300 l-20 25 -18 -25 c-197 -279 -568 -504 -1062 -645 -68 -19 -126
-34 -128 -31 -2 2 1 46 8 97 39 320 -71 741 -275 1046 l-55 83 28 14 c15 8 49
35 75 60 250 243 310 798 126 1171 -76 156 -176 249 -299 281 -211 53 -418
-139 -508 -472 -25 -91 -27 -114 -27 -299 l-1 -200 -160 80 c-236 119 -492
200 -755 240 -148 22 -438 30 -590 16 -335 -32 -712 -146 -975 -296 -43 -25
-80 -43 -82 -41 -2 1 1 47 7 100 25 222 -34 499 -143 668 -97 152 -251 235
-384 208z m2092 -1286 c528 -76 977 -371 1180 -774 91 -183 120 -313 112 -514
-4 -113 -10 -159 -32 -231 -130 -439 -525 -794 -1037 -930 -169 -45 -256 -57
-458 -62 -150 -4 -222 -1 -314 11 -397 56 -719 208 -972 461 -199 199 -312
415 -345 661 -43 323 74 644 333 910 367 378 942 553 1533 468z"/>
</g>
</svg>
