<svg id="tf-fab-discord" viewBox="0 0 32 32"><path d="M18.563 15.188q0 .75-.469 1.281T16.938 17q-.438 0-.813-.25t-.594-.656-.219-.906q0-.375.125-.688t.344-.563.531-.375.625-.125q.688 0 1.156.5t.469 1.25zm-7.438-1.75q.688 0 1.156.5t.469 1.25-.469 1.281-1.156.531-1.156-.531-.469-1.281.469-1.25 1.156-.5zM28 3.313v28.688q-3.625-3.188-7.438-6.75l.875 3H3.249q-1.313 0-2.281-.969t-.969-2.344V3.313q0-1.375.969-2.344T3.249 0h21.5q1.313 0 2.281.969t.969 2.344zm-4.562 15.125q0-2.25-.563-4.594t-1.188-3.531l-.563-1.188q-.625-.5-1.344-.844t-1.25-.5-.969-.25-.688-.094h-.25l-.188.25q1.188.375 2.188.906t1.375.844l.375.313q-2.75-1.563-6-1.625T8.435 9.25l-.938.5Q8.81 8.5 11.685 7.625l-.125-.188q-2.188 0-4.5 1.688-.25.5-.625 1.313t-1.031 3.281-.656 4.719q.125.313.469.688t1.594 1.063 2.813.688q.625-.688 1.063-1.313-.875-.25-1.594-.719t-.969-.844l-.25-.313q.125.063.281.156t.281.156l.125.063q2.125 1.188 4.719 1.406t5.281-.844q.938-.313 1.813-.938-.813 1.313-2.875 1.938l1.063 1.25q1 0 1.844-.281t1.375-.625.938-.688.531-.594z"></path></svg>